<?xml version="1.0" standalone="no"?>
<!DOCTYPE svg PUBLIC "-//W3C//DTD SVG 20010904//EN"
 "http://www.w3.org/TR/2001/REC-SVG-20010904/DTD/svg10.dtd">
<svg version="1.0" xmlns="http://www.w3.org/2000/svg"
 width="500.000000pt" height="500.000000pt" viewBox="0 0 500.000000 500.000000"
 preserveAspectRatio="xMidYMid meet">

<g transform="translate(0.000000,500.000000) scale(0.100000,-0.100000)"
fill="#000000" stroke="none">
<path d="M1887 3984 c-26 -52 -47 -96 -47 -99 0 -5 97 -55 153 -78 l37 -16 45
89 c25 49 45 93 45 98 0 4 -42 28 -93 54 l-93 46 -47 -94z"/>
<path d="M1697 3594 c-26 -52 -47 -96 -47 -99 0 -5 97 -55 153 -78 l37 -16 45
89 c25 49 45 93 45 98 0 4 -42 28 -93 54 l-93 46 -47 -94z"/>
<path d="M2944 3459 c-25 -50 -44 -92 -42 -94 9 -8 191 -96 193 -93 1 2 23 45
49 95 l46 93 -90 45 c-49 25 -94 45 -100 45 -5 0 -30 -41 -56 -91z"/>
<path d="M2367 3263 l-46 -98 96 -48 c52 -27 96 -47 98 -45 8 9 96 191 93 193
-5 4 -187 95 -191 95 -2 0 -25 -44 -50 -97z"/>
<path d="M3334 3269 c-25 -50 -44 -92 -42 -94 9 -8 191 -96 193 -93 1 2 23 45
49 95 l46 93 -90 45 c-49 25 -94 45 -100 45 -5 0 -30 -41 -56 -91z"/>
<path d="M1504 3203 c-24 -53 -43 -97 -42 -98 2 -2 45 -23 95 -49 l93 -46 45
91 c26 50 45 95 43 100 -2 6 -45 30 -96 54 l-93 44 -45 -96z"/>
<path d="M3726 3083 c-26 -52 -46 -97 -44 -98 9 -8 191 -96 193 -93 10 11 85
170 85 181 0 7 -42 33 -93 59 l-93 46 -48 -95z"/>
<path d="M2177 2873 l-46 -98 96 -48 c52 -27 96 -47 98 -45 8 9 96 191 93 193
-5 4 -187 95 -191 95 -2 0 -25 -44 -50 -97z"/>
<path d="M1314 2813 c-24 -53 -43 -97 -42 -98 2 -2 45 -23 95 -49 l93 -46 45
91 c26 50 45 95 43 100 -2 6 -45 30 -96 54 l-93 44 -45 -96z"/>
<path d="M3536 2693 c-26 -52 -46 -97 -44 -98 9 -8 191 -96 193 -93 2 2 23 46
48 99 l44 96 -46 23 c-25 13 -69 33 -97 45 l-50 23 -48 -95z"/>
<path d="M1987 2483 l-47 -98 96 -48 c53 -27 97 -47 99 -45 8 9 96 191 93 193
-5 4 -187 95 -191 95 -2 0 -24 -44 -50 -97z"/>
<path d="M1124 2423 c-24 -53 -43 -97 -42 -98 2 -2 45 -23 95 -49 l93 -46 45
91 c26 50 45 95 43 100 -2 6 -45 30 -96 54 l-93 44 -45 -96z"/>
<path d="M3346 2303 c-26 -52 -46 -97 -44 -98 9 -8 191 -96 193 -93 2 2 23 46
48 99 l44 96 -46 23 c-25 13 -69 33 -97 45 l-50 23 -48 -95z"/>
<path d="M1797 2095 l-47 -95 90 -45 c49 -25 94 -45 100 -45 9 0 105 179 98
185 -4 4 -187 95 -191 95 -1 0 -24 -43 -50 -95z"/>
<path d="M3156 1913 c-26 -53 -46 -97 -44 -98 9 -8 191 -96 193 -93 2 2 23 46
48 99 44 96 44 97 23 107 -11 6 -55 26 -97 45 l-76 35 -47 -95z"/>
<path d="M2187 1904 c-27 -53 -47 -98 -45 -99 10 -9 191 -96 194 -93 2 2 23
46 48 98 l45 95 -92 47 c-51 26 -94 47 -97 47 -3 1 -27 -42 -53 -95z"/>
<path d="M2576 1713 c-26 -52 -46 -97 -44 -98 10 -9 191 -96 194 -93 2 2 23
47 48 99 l44 96 -47 23 c-25 12 -69 33 -97 45 l-50 23 -48 -95z"/>
</g>
</svg>
